<svg
  width="290"
  height="20"
  viewBox="0 0 290 20"
  fill="none"
  xmlns="http://www.w3.org/2000/svg"
>
<rect x="0.5" y="5.5" width="9" height="9" rx="4.5" fill="#248C00" />
<rect x="0.5" y="5.5" width="9" height="9" rx="4.5" stroke="white" />
<path
    d="M18.9355 6.74902L16.2285 15H14.0479L17.7461 5.04688H19.1338L18.9355 6.74902ZM21.1846 15L18.4707 6.74902L18.252 5.04688H19.6533L23.3721 15H21.1846ZM21.0615 11.2949V12.9014H15.8047V11.2949H21.0615ZM26.3457 13.5645L27.9863 7.60352H30.0439L27.5488 15H26.3047L26.3457 13.5645ZM25.2178 7.60352L26.8652 13.5713L26.8994 15H25.6484L23.1533 7.60352H25.2178ZM34.8086 13.332V10.0371C34.8086 9.80013 34.7699 9.59733 34.6924 9.42871C34.6149 9.25553 34.4941 9.12109 34.3301 9.02539C34.1706 8.92969 33.9632 8.88184 33.708 8.88184C33.4893 8.88184 33.3001 8.92057 33.1406 8.99805C32.9811 9.07096 32.8581 9.17806 32.7715 9.31934C32.6849 9.45605 32.6416 9.61784 32.6416 9.80469H30.6729C30.6729 9.49023 30.7458 9.19173 30.8916 8.90918C31.0374 8.62663 31.2493 8.37826 31.5273 8.16406C31.8053 7.94531 32.1357 7.77441 32.5186 7.65137C32.9059 7.52832 33.3389 7.4668 33.8174 7.4668C34.3916 7.4668 34.902 7.5625 35.3486 7.75391C35.7952 7.94531 36.1462 8.23242 36.4014 8.61523C36.6611 8.99805 36.791 9.47656 36.791 10.0508V13.2158C36.791 13.6214 36.8161 13.9541 36.8662 14.2139C36.9163 14.4691 36.9893 14.6924 37.085 14.8838V15H35.0957C35 14.7995 34.9271 14.5488 34.877 14.248C34.8314 13.9427 34.8086 13.6374 34.8086 13.332ZM35.0684 10.4951L35.082 11.6094H33.9814C33.7217 11.6094 33.4961 11.639 33.3047 11.6982C33.1133 11.7575 32.9561 11.8418 32.833 11.9512C32.71 12.056 32.6188 12.179 32.5596 12.3203C32.5049 12.4616 32.4775 12.6165 32.4775 12.7852C32.4775 12.9538 32.5163 13.1064 32.5938 13.2432C32.6712 13.3753 32.7829 13.4801 32.9287 13.5576C33.0745 13.6305 33.2454 13.667 33.4414 13.667C33.7376 13.667 33.9951 13.6077 34.2139 13.4893C34.4326 13.3708 34.6012 13.2249 34.7197 13.0518C34.8428 12.8786 34.9066 12.7145 34.9111 12.5596L35.4307 13.3936C35.3577 13.5804 35.2575 13.7741 35.1299 13.9746C35.0068 14.1751 34.8496 14.3643 34.6582 14.542C34.4668 14.7152 34.2367 14.8587 33.9678 14.9727C33.6989 15.082 33.3799 15.1367 33.0107 15.1367C32.5413 15.1367 32.1152 15.0433 31.7324 14.8564C31.3542 14.665 31.0534 14.403 30.8301 14.0703C30.6113 13.7331 30.502 13.3503 30.502 12.9219C30.502 12.5345 30.5749 12.1904 30.7207 11.8896C30.8665 11.5889 31.0807 11.3359 31.3633 11.1309C31.6504 10.9212 32.0081 10.764 32.4365 10.6592C32.8649 10.5498 33.3617 10.4951 33.9268 10.4951H35.0684ZM40.3867 7.60352V15H38.4111V7.60352H40.3867ZM38.2881 5.67578C38.2881 5.38867 38.3883 5.15169 38.5889 4.96484C38.7894 4.77799 39.0583 4.68457 39.3955 4.68457C39.7282 4.68457 39.9948 4.77799 40.1953 4.96484C40.4004 5.15169 40.5029 5.38867 40.5029 5.67578C40.5029 5.96289 40.4004 6.19987 40.1953 6.38672C39.9948 6.57357 39.7282 6.66699 39.3955 6.66699C39.0583 6.66699 38.7894 6.57357 38.5889 6.38672C38.3883 6.19987 38.2881 5.96289 38.2881 5.67578ZM44.0918 4.5V15H42.1162V4.5H44.0918ZM49.7109 13.332V10.0371C49.7109 9.80013 49.6722 9.59733 49.5947 9.42871C49.5173 9.25553 49.3965 9.12109 49.2324 9.02539C49.0729 8.92969 48.8656 8.88184 48.6104 8.88184C48.3916 8.88184 48.2025 8.92057 48.043 8.99805C47.8835 9.07096 47.7604 9.17806 47.6738 9.31934C47.5872 9.45605 47.5439 9.61784 47.5439 9.80469H45.5752C45.5752 9.49023 45.6481 9.19173 45.7939 8.90918C45.9398 8.62663 46.1517 8.37826 46.4297 8.16406C46.7077 7.94531 47.0381 7.77441 47.4209 7.65137C47.8083 7.52832 48.2412 7.4668 48.7197 7.4668C49.2939 7.4668 49.8044 7.5625 50.251 7.75391C50.6976 7.94531 51.0485 8.23242 51.3037 8.61523C51.5635 8.99805 51.6934 9.47656 51.6934 10.0508V13.2158C51.6934 13.6214 51.7184 13.9541 51.7686 14.2139C51.8187 14.4691 51.8916 14.6924 51.9873 14.8838V15H49.998C49.9023 14.7995 49.8294 14.5488 49.7793 14.248C49.7337 13.9427 49.7109 13.6374 49.7109 13.332ZM49.9707 10.4951L49.9844 11.6094H48.8838C48.624 11.6094 48.3984 11.639 48.207 11.6982C48.0156 11.7575 47.8584 11.8418 47.7354 11.9512C47.6123 12.056 47.5212 12.179 47.4619 12.3203C47.4072 12.4616 47.3799 12.6165 47.3799 12.7852C47.3799 12.9538 47.4186 13.1064 47.4961 13.2432C47.5736 13.3753 47.6852 13.4801 47.8311 13.5576C47.9769 13.6305 48.1478 13.667 48.3438 13.667C48.64 13.667 48.8975 13.6077 49.1162 13.4893C49.335 13.3708 49.5036 13.2249 49.6221 13.0518C49.7451 12.8786 49.8089 12.7145 49.8135 12.5596L50.333 13.3936C50.2601 13.5804 50.1598 13.7741 50.0322 13.9746C49.9092 14.1751 49.752 14.3643 49.5605 14.542C49.3691 14.7152 49.139 14.8587 48.8701 14.9727C48.6012 15.082 48.2822 15.1367 47.9131 15.1367C47.4437 15.1367 47.0176 15.0433 46.6348 14.8564C46.2565 14.665 45.9557 14.403 45.7324 14.0703C45.5137 13.7331 45.4043 13.3503 45.4043 12.9219C45.4043 12.5345 45.4772 12.1904 45.623 11.8896C45.7689 11.5889 45.9831 11.3359 46.2656 11.1309C46.5527 10.9212 46.9105 10.764 47.3389 10.6592C47.7673 10.5498 48.264 10.4951 48.8291 10.4951H49.9707ZM53.2109 4.5H55.1797V13.3047L54.9814 15H53.2109V4.5ZM59.8623 11.2266V11.3701C59.8623 11.9215 59.8031 12.4274 59.6846 12.8877C59.5706 13.348 59.3929 13.7467 59.1514 14.084C58.9098 14.4167 58.609 14.6764 58.249 14.8633C57.8936 15.0456 57.4743 15.1367 56.9912 15.1367C56.54 15.1367 56.1481 15.0456 55.8154 14.8633C55.4873 14.681 55.2116 14.4235 54.9883 14.0908C54.765 13.7581 54.585 13.3685 54.4482 12.9219C54.3115 12.4753 54.209 11.9876 54.1406 11.459V11.1445C54.209 10.6159 54.3115 10.1283 54.4482 9.68164C54.585 9.23503 54.765 8.84538 54.9883 8.5127C55.2116 8.18001 55.4873 7.92253 55.8154 7.74023C56.1436 7.55794 56.5309 7.4668 56.9775 7.4668C57.4652 7.4668 57.889 7.56022 58.249 7.74707C58.6136 7.92936 58.9144 8.18913 59.1514 8.52637C59.3929 8.85905 59.5706 9.25553 59.6846 9.71582C59.8031 10.1715 59.8623 10.6751 59.8623 11.2266ZM57.8936 11.3701V11.2266C57.8936 10.9258 57.8708 10.6432 57.8252 10.3789C57.7842 10.11 57.7113 9.87533 57.6064 9.6748C57.5016 9.46973 57.3581 9.30794 57.1758 9.18945C56.998 9.07096 56.7679 9.01172 56.4854 9.01172C56.2165 9.01172 55.9886 9.05729 55.8018 9.14844C55.6149 9.23958 55.46 9.36719 55.3369 9.53125C55.2184 9.69531 55.1296 9.89128 55.0703 10.1191C55.0111 10.3424 54.9746 10.5885 54.9609 10.8574V11.7529C54.9746 12.113 55.0339 12.432 55.1387 12.71C55.248 12.9834 55.4121 13.1999 55.6309 13.3594C55.8542 13.5143 56.1436 13.5918 56.499 13.5918C56.777 13.5918 57.0072 13.5371 57.1895 13.4277C57.3717 13.3184 57.513 13.1634 57.6133 12.9629C57.7181 12.7624 57.791 12.5277 57.832 12.2588C57.873 11.9854 57.8936 11.6891 57.8936 11.3701ZM63.1641 4.5V15H61.1885V4.5H63.1641ZM68.1953 15.1367C67.6211 15.1367 67.1061 15.0456 66.6504 14.8633C66.1947 14.6764 65.8073 14.4189 65.4883 14.0908C65.1738 13.7627 64.9323 13.3822 64.7637 12.9492C64.5951 12.5117 64.5107 12.0469 64.5107 11.5547V11.2812C64.5107 10.7207 64.5905 10.208 64.75 9.74316C64.9095 9.27832 65.1374 8.875 65.4336 8.5332C65.7344 8.19141 66.099 7.92936 66.5273 7.74707C66.9557 7.56022 67.4388 7.4668 67.9766 7.4668C68.5007 7.4668 68.9655 7.55339 69.3711 7.72656C69.7767 7.89974 70.1162 8.14583 70.3896 8.46484C70.6676 8.78385 70.8773 9.16667 71.0186 9.61328C71.1598 10.0553 71.2305 10.5475 71.2305 11.0898V11.9102H65.3516V10.5977H69.2959V10.4473C69.2959 10.1738 69.2458 9.93001 69.1455 9.71582C69.0498 9.49707 68.904 9.32389 68.708 9.19629C68.512 9.06868 68.2614 9.00488 67.9561 9.00488C67.6963 9.00488 67.473 9.06185 67.2861 9.17578C67.0993 9.28971 66.9466 9.44922 66.8281 9.6543C66.7142 9.85938 66.6276 10.1009 66.5684 10.3789C66.5137 10.6523 66.4863 10.9531 66.4863 11.2812V11.5547C66.4863 11.8509 66.5273 12.1243 66.6094 12.375C66.696 12.6257 66.8167 12.8421 66.9717 13.0244C67.1312 13.2067 67.3226 13.348 67.5459 13.4482C67.7738 13.5485 68.0312 13.5986 68.3184 13.5986C68.6738 13.5986 69.0042 13.5303 69.3096 13.3936C69.6195 13.2523 69.8861 13.0404 70.1094 12.7578L71.0664 13.7969C70.9115 14.0202 70.6995 14.2344 70.4307 14.4395C70.1663 14.6445 69.8473 14.8132 69.4736 14.9453C69.0999 15.0729 68.6738 15.1367 68.1953 15.1367ZM84.0615 5.04688V15H82.0107L78.0117 8.32812V15H75.9609V5.04688H78.0117L82.0176 11.7256V5.04688H84.0615ZM85.4082 11.377V11.2334C85.4082 10.6911 85.4857 10.1921 85.6406 9.73633C85.7956 9.27604 86.0212 8.87728 86.3174 8.54004C86.6136 8.2028 86.9782 7.94076 87.4111 7.75391C87.8441 7.5625 88.3408 7.4668 88.9014 7.4668C89.4619 7.4668 89.9609 7.5625 90.3984 7.75391C90.8359 7.94076 91.2028 8.2028 91.499 8.54004C91.7998 8.87728 92.0277 9.27604 92.1826 9.73633C92.3376 10.1921 92.415 10.6911 92.415 11.2334V11.377C92.415 11.9147 92.3376 12.4137 92.1826 12.874C92.0277 13.3298 91.7998 13.7285 91.499 14.0703C91.2028 14.4076 90.8382 14.6696 90.4053 14.8564C89.9723 15.0433 89.4756 15.1367 88.915 15.1367C88.3545 15.1367 87.8555 15.0433 87.418 14.8564C86.985 14.6696 86.6182 14.4076 86.3174 14.0703C86.0212 13.7285 85.7956 13.3298 85.6406 12.874C85.4857 12.4137 85.4082 11.9147 85.4082 11.377ZM87.377 11.2334V11.377C87.377 11.6868 87.4043 11.9762 87.459 12.2451C87.5137 12.514 87.6003 12.751 87.7188 12.9561C87.8418 13.1566 88.0013 13.3138 88.1973 13.4277C88.3932 13.5417 88.6325 13.5986 88.915 13.5986C89.1885 13.5986 89.4232 13.5417 89.6191 13.4277C89.8151 13.3138 89.9723 13.1566 90.0908 12.9561C90.2093 12.751 90.2959 12.514 90.3506 12.2451C90.4098 11.9762 90.4395 11.6868 90.4395 11.377V11.2334C90.4395 10.9326 90.4098 10.6501 90.3506 10.3857C90.2959 10.1169 90.207 9.87988 90.084 9.6748C89.9655 9.46517 89.8083 9.30111 89.6123 9.18262C89.4163 9.06413 89.1794 9.00488 88.9014 9.00488C88.6234 9.00488 88.3864 9.06413 88.1904 9.18262C87.999 9.30111 87.8418 9.46517 87.7188 9.6748C87.6003 9.87988 87.5137 10.1169 87.459 10.3857C87.4043 10.6501 87.377 10.9326 87.377 11.2334ZM95.7373 13.0859L97.2754 7.60352H98.5264L98.123 9.75684L96.585 15H95.5391L95.7373 13.0859ZM94.958 7.60352L96.0586 13.0791L96.1611 15H94.9307L93.0576 7.60352H94.958ZM99.9346 12.9902L101.008 7.60352H102.915L101.042 15H99.8184L99.9346 12.9902ZM98.6973 7.60352L100.229 13.0449L100.44 15H99.3877L97.8496 9.76367L97.46 7.60352H98.6973Z"
    fill="white"
  />
<line opacity="0.24" x1="116.5" y1="2" x2="116.5" y2="18" stroke="white" />
<path
    opacity="0.2"
    d="M136 16C139.314 16 142 13.3137 142 10C142 6.68629 139.314 4 136 4C132.686 4 130 6.68629 130 10C130 13.3137 132.686 16 136 16Z"
    fill="white"
  />
<path
    d="M136 16C139.314 16 142 13.3137 142 10C142 6.68629 139.314 4 136 4C132.686 4 130 6.68629 130 10C130 13.3137 132.686 16 136 16Z"
    stroke="white"
    stroke-width="1.2"
    stroke-miterlimit="10"
  />
<path
    d="M136 6.5V10H139.5"
    stroke="white"
    stroke-width="1.2"
    stroke-linecap="round"
    stroke-linejoin="round"
  />
<path
    d="M149.155 5.04688H152.45C153.198 5.04688 153.829 5.16081 154.344 5.38867C154.863 5.61654 155.257 5.95378 155.526 6.40039C155.8 6.84245 155.937 7.38704 155.937 8.03418C155.937 8.48991 155.843 8.9069 155.656 9.28516C155.474 9.65885 155.21 9.97786 154.863 10.2422C154.521 10.502 154.111 10.6956 153.633 10.8232L153.264 10.9668H150.167L150.153 9.89355H152.491C152.965 9.89355 153.359 9.81152 153.674 9.64746C153.988 9.47884 154.225 9.25326 154.385 8.9707C154.544 8.68815 154.624 8.37598 154.624 8.03418C154.624 7.65137 154.549 7.31641 154.398 7.0293C154.248 6.74219 154.011 6.52116 153.688 6.36621C153.368 6.20671 152.956 6.12695 152.45 6.12695H150.475V15H149.155V5.04688ZM154.973 15L152.553 10.4883L153.927 10.4814L156.381 14.918V15H154.973ZM160.66 15.1367C160.145 15.1367 159.678 15.0501 159.259 14.877C158.844 14.6992 158.486 14.4508 158.186 14.1318C157.889 13.8128 157.661 13.4346 157.502 12.9971C157.342 12.5596 157.263 12.0811 157.263 11.5615V11.2744C157.263 10.6729 157.352 10.1374 157.529 9.66797C157.707 9.19401 157.949 8.79297 158.254 8.46484C158.559 8.13672 158.906 7.88835 159.293 7.71973C159.68 7.55111 160.081 7.4668 160.496 7.4668C161.025 7.4668 161.48 7.55794 161.863 7.74023C162.251 7.92253 162.567 8.17773 162.813 8.50586C163.06 8.82943 163.242 9.21224 163.36 9.6543C163.479 10.0918 163.538 10.5703 163.538 11.0898V11.6572H158.015V10.625H162.273V10.5293C162.255 10.2012 162.187 9.88216 162.068 9.57227C161.954 9.26237 161.772 9.00716 161.521 8.80664C161.271 8.60612 160.929 8.50586 160.496 8.50586C160.209 8.50586 159.945 8.56738 159.703 8.69043C159.462 8.80892 159.254 8.98665 159.081 9.22363C158.908 9.46061 158.773 9.75 158.678 10.0918C158.582 10.4336 158.534 10.8278 158.534 11.2744V11.5615C158.534 11.9124 158.582 12.2428 158.678 12.5527C158.778 12.8581 158.922 13.127 159.108 13.3594C159.3 13.5918 159.53 13.7741 159.799 13.9062C160.072 14.0384 160.382 14.1045 160.729 14.1045C161.175 14.1045 161.553 14.0133 161.863 13.8311C162.173 13.6488 162.444 13.4049 162.677 13.0996L163.442 13.708C163.283 13.9495 163.08 14.1797 162.834 14.3984C162.588 14.6172 162.285 14.7949 161.925 14.9316C161.569 15.0684 161.148 15.1367 160.66 15.1367ZM169.321 13.0381C169.321 12.8558 169.28 12.6872 169.198 12.5322C169.121 12.3727 168.959 12.2292 168.713 12.1016C168.471 11.9694 168.107 11.8555 167.619 11.7598C167.209 11.6732 166.838 11.5706 166.505 11.4521C166.177 11.3337 165.896 11.1901 165.664 11.0215C165.436 10.8529 165.261 10.6546 165.138 10.4268C165.015 10.1989 164.953 9.93229 164.953 9.62695C164.953 9.33529 165.017 9.05957 165.145 8.7998C165.277 8.54004 165.461 8.3099 165.698 8.10938C165.94 7.90885 166.229 7.75163 166.566 7.6377C166.904 7.52376 167.28 7.4668 167.694 7.4668C168.287 7.4668 168.793 7.57161 169.212 7.78125C169.631 7.99089 169.952 8.27116 170.176 8.62207C170.399 8.96842 170.511 9.35352 170.511 9.77734H169.246C169.246 9.57227 169.185 9.37402 169.062 9.18262C168.943 8.98665 168.768 8.82487 168.535 8.69727C168.307 8.56966 168.027 8.50586 167.694 8.50586C167.343 8.50586 167.059 8.56055 166.84 8.66992C166.626 8.77474 166.468 8.90918 166.368 9.07324C166.272 9.2373 166.225 9.41048 166.225 9.59277C166.225 9.72949 166.247 9.85254 166.293 9.96191C166.343 10.0667 166.43 10.1647 166.553 10.2559C166.676 10.3424 166.849 10.4245 167.072 10.502C167.296 10.5794 167.58 10.6569 167.927 10.7344C168.533 10.8711 169.032 11.0352 169.424 11.2266C169.816 11.418 170.107 11.6527 170.299 11.9307C170.49 12.2087 170.586 12.5459 170.586 12.9424C170.586 13.266 170.518 13.5622 170.381 13.8311C170.249 14.0999 170.055 14.3324 169.8 14.5283C169.549 14.7197 169.248 14.8701 168.897 14.9795C168.551 15.0843 168.161 15.1367 167.729 15.1367C167.077 15.1367 166.525 15.0205 166.074 14.7881C165.623 14.5557 165.281 14.2549 165.049 13.8857C164.816 13.5166 164.7 13.127 164.7 12.7168H165.972C165.99 13.0632 166.09 13.3389 166.272 13.5439C166.455 13.7445 166.678 13.888 166.942 13.9746C167.207 14.0566 167.469 14.0977 167.729 14.0977C168.075 14.0977 168.364 14.0521 168.597 13.9609C168.834 13.8698 169.014 13.7445 169.137 13.585C169.26 13.4255 169.321 13.2432 169.321 13.0381ZM173.512 9.02539V17.8438H172.24V7.60352H173.402L173.512 9.02539ZM178.495 11.2402V11.3838C178.495 11.9215 178.431 12.4206 178.304 12.8809C178.176 13.3366 177.989 13.7331 177.743 14.0703C177.502 14.4076 177.203 14.6696 176.848 14.8564C176.492 15.0433 176.084 15.1367 175.624 15.1367C175.155 15.1367 174.74 15.0592 174.38 14.9043C174.02 14.7493 173.715 14.5238 173.464 14.2275C173.213 13.9313 173.013 13.5758 172.862 13.1611C172.716 12.7464 172.616 12.2793 172.562 11.7598V10.9941C172.616 10.4473 172.719 9.95736 172.869 9.52441C173.02 9.09147 173.218 8.72233 173.464 8.41699C173.715 8.1071 174.018 7.8724 174.373 7.71289C174.729 7.54883 175.139 7.4668 175.604 7.4668C176.068 7.4668 176.481 7.55794 176.841 7.74023C177.201 7.91797 177.504 8.17318 177.75 8.50586C177.996 8.83854 178.181 9.2373 178.304 9.70215C178.431 10.1624 178.495 10.6751 178.495 11.2402ZM177.224 11.3838V11.2402C177.224 10.8711 177.185 10.5247 177.107 10.2012C177.03 9.87305 176.909 9.58594 176.745 9.33984C176.586 9.08919 176.381 8.89323 176.13 8.75195C175.879 8.60612 175.581 8.5332 175.234 8.5332C174.915 8.5332 174.637 8.58789 174.4 8.69727C174.168 8.80664 173.97 8.95475 173.806 9.1416C173.642 9.32389 173.507 9.53353 173.402 9.77051C173.302 10.0029 173.227 10.2445 173.177 10.4951V12.2656C173.268 12.5846 173.396 12.8854 173.56 13.168C173.724 13.446 173.942 13.6715 174.216 13.8447C174.489 14.0133 174.833 14.0977 175.248 14.0977C175.59 14.0977 175.884 14.027 176.13 13.8857C176.381 13.7399 176.586 13.5417 176.745 13.291C176.909 13.0404 177.03 12.7533 177.107 12.4297C177.185 12.1016 177.224 11.7529 177.224 11.3838ZM179.773 11.3838V11.2266C179.773 10.6934 179.851 10.1989 180.006 9.74316C180.161 9.28288 180.384 8.88411 180.676 8.54688C180.967 8.20508 181.321 7.94076 181.735 7.75391C182.15 7.5625 182.615 7.4668 183.13 7.4668C183.649 7.4668 184.117 7.5625 184.531 7.75391C184.951 7.94076 185.306 8.20508 185.598 8.54688C185.894 8.88411 186.119 9.28288 186.274 9.74316C186.429 10.1989 186.507 10.6934 186.507 11.2266V11.3838C186.507 11.917 186.429 12.4115 186.274 12.8672C186.119 13.3229 185.894 13.7217 185.598 14.0635C185.306 14.4007 184.953 14.665 184.538 14.8564C184.128 15.0433 183.663 15.1367 183.144 15.1367C182.624 15.1367 182.157 15.0433 181.742 14.8564C181.327 14.665 180.972 14.4007 180.676 14.0635C180.384 13.7217 180.161 13.3229 180.006 12.8672C179.851 12.4115 179.773 11.917 179.773 11.3838ZM181.038 11.2266V11.3838C181.038 11.7529 181.081 12.1016 181.168 12.4297C181.255 12.7533 181.384 13.0404 181.558 13.291C181.735 13.5417 181.956 13.7399 182.221 13.8857C182.485 14.027 182.793 14.0977 183.144 14.0977C183.49 14.0977 183.793 14.027 184.053 13.8857C184.317 13.7399 184.536 13.5417 184.709 13.291C184.882 13.0404 185.012 12.7533 185.099 12.4297C185.19 12.1016 185.235 11.7529 185.235 11.3838V11.2266C185.235 10.862 185.19 10.5179 185.099 10.1943C185.012 9.86621 184.88 9.57682 184.702 9.32617C184.529 9.07096 184.31 8.87044 184.046 8.72461C183.786 8.57878 183.481 8.50586 183.13 8.50586C182.784 8.50586 182.478 8.57878 182.214 8.72461C181.954 8.87044 181.735 9.07096 181.558 9.32617C181.384 9.57682 181.255 9.86621 181.168 10.1943C181.081 10.5179 181.038 10.862 181.038 11.2266ZM189.357 9.18262V15H188.093V7.60352H189.289L189.357 9.18262ZM189.057 11.0215L188.53 11.001C188.535 10.4951 188.61 10.028 188.756 9.59961C188.902 9.16667 189.107 8.79069 189.371 8.47168C189.635 8.15267 189.95 7.90658 190.314 7.7334C190.684 7.55566 191.091 7.4668 191.538 7.4668C191.903 7.4668 192.231 7.51693 192.522 7.61719C192.814 7.71289 193.062 7.86784 193.268 8.08203C193.477 8.29622 193.637 8.57422 193.746 8.91602C193.855 9.25326 193.91 9.66569 193.91 10.1533V15H192.639V10.1396C192.639 9.75228 192.582 9.44238 192.468 9.20996C192.354 8.97298 192.188 8.80208 191.969 8.69727C191.75 8.58789 191.481 8.5332 191.162 8.5332C190.848 8.5332 190.561 8.59928 190.301 8.73145C190.046 8.86361 189.825 9.0459 189.638 9.27832C189.455 9.51074 189.312 9.77734 189.207 10.0781C189.107 10.3743 189.057 10.6888 189.057 11.0215ZM200.493 13.5645V4.5H201.765V15H200.603L200.493 13.5645ZM195.517 11.3838V11.2402C195.517 10.6751 195.585 10.1624 195.722 9.70215C195.863 9.2373 196.061 8.83854 196.316 8.50586C196.576 8.17318 196.884 7.91797 197.239 7.74023C197.599 7.55794 198 7.4668 198.442 7.4668C198.907 7.4668 199.313 7.54883 199.659 7.71289C200.01 7.8724 200.306 8.1071 200.548 8.41699C200.794 8.72233 200.988 9.09147 201.129 9.52441C201.27 9.95736 201.368 10.4473 201.423 10.9941V11.623C201.373 12.1654 201.275 12.653 201.129 13.0859C200.988 13.5189 200.794 13.888 200.548 14.1934C200.306 14.4987 200.01 14.7334 199.659 14.8975C199.308 15.057 198.898 15.1367 198.429 15.1367C197.996 15.1367 197.599 15.0433 197.239 14.8564C196.884 14.6696 196.576 14.4076 196.316 14.0703C196.061 13.7331 195.863 13.3366 195.722 12.8809C195.585 12.4206 195.517 11.9215 195.517 11.3838ZM196.788 11.2402V11.3838C196.788 11.7529 196.825 12.0993 196.897 12.4229C196.975 12.7464 197.093 13.0312 197.253 13.2773C197.412 13.5234 197.615 13.7171 197.861 13.8584C198.107 13.9951 198.401 14.0635 198.743 14.0635C199.162 14.0635 199.507 13.9746 199.775 13.7969C200.049 13.6191 200.268 13.3844 200.432 13.0928C200.596 12.8011 200.723 12.4844 200.814 12.1426V10.4951C200.76 10.2445 200.68 10.0029 200.575 9.77051C200.475 9.53353 200.343 9.32389 200.179 9.1416C200.019 8.95475 199.821 8.80664 199.584 8.69727C199.352 8.58789 199.076 8.5332 198.757 8.5332C198.41 8.5332 198.112 8.60612 197.861 8.75195C197.615 8.89323 197.412 9.08919 197.253 9.33984C197.093 9.58594 196.975 9.87305 196.897 10.2012C196.825 10.5247 196.788 10.8711 196.788 11.2402ZM208.04 13.0381C208.04 12.8558 207.999 12.6872 207.917 12.5322C207.84 12.3727 207.678 12.2292 207.432 12.1016C207.19 11.9694 206.826 11.8555 206.338 11.7598C205.928 11.6732 205.556 11.5706 205.224 11.4521C204.896 11.3337 204.615 11.1901 204.383 11.0215C204.155 10.8529 203.979 10.6546 203.856 10.4268C203.733 10.1989 203.672 9.93229 203.672 9.62695C203.672 9.33529 203.736 9.05957 203.863 8.7998C203.995 8.54004 204.18 8.3099 204.417 8.10938C204.659 7.90885 204.948 7.75163 205.285 7.6377C205.622 7.52376 205.998 7.4668 206.413 7.4668C207.006 7.4668 207.511 7.57161 207.931 7.78125C208.35 7.99089 208.671 8.27116 208.895 8.62207C209.118 8.96842 209.229 9.35352 209.229 9.77734H207.965C207.965 9.57227 207.903 9.37402 207.78 9.18262C207.662 8.98665 207.486 8.82487 207.254 8.69727C207.026 8.56966 206.746 8.50586 206.413 8.50586C206.062 8.50586 205.777 8.56055 205.559 8.66992C205.344 8.77474 205.187 8.90918 205.087 9.07324C204.991 9.2373 204.943 9.41048 204.943 9.59277C204.943 9.72949 204.966 9.85254 205.012 9.96191C205.062 10.0667 205.148 10.1647 205.271 10.2559C205.395 10.3424 205.568 10.4245 205.791 10.502C206.014 10.5794 206.299 10.6569 206.646 10.7344C207.252 10.8711 207.751 11.0352 208.143 11.2266C208.535 11.418 208.826 11.6527 209.018 11.9307C209.209 12.2087 209.305 12.5459 209.305 12.9424C209.305 13.266 209.236 13.5622 209.1 13.8311C208.967 14.0999 208.774 14.3324 208.519 14.5283C208.268 14.7197 207.967 14.8701 207.616 14.9795C207.27 15.0843 206.88 15.1367 206.447 15.1367C205.796 15.1367 205.244 15.0205 204.793 14.7881C204.342 14.5557 204 14.2549 203.768 13.8857C203.535 13.5166 203.419 13.127 203.419 12.7168H204.69C204.709 13.0632 204.809 13.3389 204.991 13.5439C205.174 13.7445 205.397 13.888 205.661 13.9746C205.925 14.0566 206.188 14.0977 206.447 14.0977C206.794 14.0977 207.083 14.0521 207.315 13.9609C207.552 13.8698 207.732 13.7445 207.855 13.585C207.979 13.4255 208.04 13.2432 208.04 13.0381ZM215.812 7.60352V15H214.541V7.60352H215.812ZM214.445 5.6416C214.445 5.43652 214.507 5.26335 214.63 5.12207C214.757 4.98079 214.944 4.91016 215.19 4.91016C215.432 4.91016 215.617 4.98079 215.744 5.12207C215.876 5.26335 215.942 5.43652 215.942 5.6416C215.942 5.83757 215.876 6.00618 215.744 6.14746C215.617 6.28418 215.432 6.35254 215.19 6.35254C214.944 6.35254 214.757 6.28418 214.63 6.14746C214.507 6.00618 214.445 5.83757 214.445 5.6416ZM219.107 9.18262V15H217.843V7.60352H219.039L219.107 9.18262ZM218.807 11.0215L218.28 11.001C218.285 10.4951 218.36 10.028 218.506 9.59961C218.652 9.16667 218.857 8.79069 219.121 8.47168C219.385 8.15267 219.7 7.90658 220.064 7.7334C220.434 7.55566 220.841 7.4668 221.288 7.4668C221.653 7.4668 221.981 7.51693 222.272 7.61719C222.564 7.71289 222.812 7.86784 223.018 8.08203C223.227 8.29622 223.387 8.57422 223.496 8.91602C223.605 9.25326 223.66 9.66569 223.66 10.1533V15H222.389V10.1396C222.389 9.75228 222.332 9.44238 222.218 9.20996C222.104 8.97298 221.938 8.80208 221.719 8.69727C221.5 8.58789 221.231 8.5332 220.912 8.5332C220.598 8.5332 220.311 8.59928 220.051 8.73145C219.796 8.86361 219.575 9.0459 219.388 9.27832C219.205 9.51074 219.062 9.77734 218.957 10.0781C218.857 10.3743 218.807 10.6888 218.807 11.0215ZM235.438 13.9609V15H228.924V14.0908L232.185 10.4609C232.586 10.0143 232.896 9.63607 233.114 9.32617C233.338 9.01172 233.493 8.73145 233.579 8.48535C233.67 8.2347 233.716 7.97949 233.716 7.71973C233.716 7.3916 233.647 7.09538 233.511 6.83105C233.379 6.56217 233.183 6.34798 232.923 6.18848C232.663 6.02897 232.349 5.94922 231.979 5.94922C231.537 5.94922 231.168 6.03581 230.872 6.20898C230.58 6.3776 230.362 6.61458 230.216 6.91992C230.07 7.22526 229.997 7.57617 229.997 7.97266H228.732C228.732 7.41211 228.855 6.89941 229.102 6.43457C229.348 5.96973 229.712 5.60059 230.195 5.32715C230.678 5.04915 231.273 4.91016 231.979 4.91016C232.608 4.91016 233.146 5.02181 233.593 5.24512C234.039 5.46387 234.381 5.77376 234.618 6.1748C234.86 6.57129 234.98 7.03613 234.98 7.56934C234.98 7.861 234.93 8.15723 234.83 8.45801C234.734 8.75423 234.6 9.05046 234.427 9.34668C234.258 9.6429 234.06 9.93457 233.832 10.2217C233.609 10.5088 233.369 10.7913 233.114 11.0693L230.448 13.9609H235.438ZM241.659 9.07324V15H240.388V7.60352H241.591L241.659 9.07324ZM241.399 11.0215L240.812 11.001C240.816 10.4951 240.882 10.028 241.01 9.59961C241.137 9.16667 241.326 8.79069 241.577 8.47168C241.828 8.15267 242.14 7.90658 242.514 7.7334C242.887 7.55566 243.32 7.4668 243.812 7.4668C244.159 7.4668 244.478 7.51693 244.77 7.61719C245.061 7.71289 245.314 7.86556 245.528 8.0752C245.743 8.28483 245.909 8.55371 246.027 8.88184C246.146 9.20996 246.205 9.60645 246.205 10.0713V15H244.94V10.1328C244.94 9.74544 244.874 9.43555 244.742 9.20312C244.615 8.9707 244.432 8.80208 244.195 8.69727C243.958 8.58789 243.68 8.5332 243.361 8.5332C242.988 8.5332 242.675 8.59928 242.425 8.73145C242.174 8.86361 241.974 9.0459 241.823 9.27832C241.673 9.51074 241.563 9.77734 241.495 10.0781C241.431 10.3743 241.399 10.6888 241.399 11.0215ZM246.191 10.3242L245.344 10.584C245.348 10.1784 245.414 9.78874 245.542 9.41504C245.674 9.04134 245.863 8.70866 246.109 8.41699C246.36 8.12533 246.668 7.89518 247.032 7.72656C247.397 7.55339 247.814 7.4668 248.283 7.4668C248.68 7.4668 249.031 7.51921 249.336 7.62402C249.646 7.72884 249.906 7.89062 250.115 8.10938C250.329 8.32357 250.491 8.59928 250.601 8.93652C250.71 9.27376 250.765 9.6748 250.765 10.1396V15H249.493V10.126C249.493 9.71126 249.427 9.38997 249.295 9.16211C249.167 8.92969 248.985 8.7679 248.748 8.67676C248.516 8.58105 248.238 8.5332 247.914 8.5332C247.636 8.5332 247.39 8.58105 247.176 8.67676C246.962 8.77246 246.782 8.90462 246.636 9.07324C246.49 9.2373 246.378 9.42643 246.301 9.64062C246.228 9.85482 246.191 10.0827 246.191 10.3242ZM254.053 7.60352V15H252.781V7.60352H254.053ZM252.686 5.6416C252.686 5.43652 252.747 5.26335 252.87 5.12207C252.998 4.98079 253.185 4.91016 253.431 4.91016C253.672 4.91016 253.857 4.98079 253.984 5.12207C254.117 5.26335 254.183 5.43652 254.183 5.6416C254.183 5.83757 254.117 6.00618 253.984 6.14746C253.857 6.28418 253.672 6.35254 253.431 6.35254C253.185 6.35254 252.998 6.28418 252.87 6.14746C252.747 6.00618 252.686 5.83757 252.686 5.6416ZM257.348 9.18262V15H256.083V7.60352H257.279L257.348 9.18262ZM257.047 11.0215L256.521 11.001C256.525 10.4951 256.6 10.028 256.746 9.59961C256.892 9.16667 257.097 8.79069 257.361 8.47168C257.626 8.15267 257.94 7.90658 258.305 7.7334C258.674 7.55566 259.082 7.4668 259.528 7.4668C259.893 7.4668 260.221 7.51693 260.513 7.61719C260.804 7.71289 261.053 7.86784 261.258 8.08203C261.467 8.29622 261.627 8.57422 261.736 8.91602C261.846 9.25326 261.9 9.66569 261.9 10.1533V15H260.629V10.1396C260.629 9.75228 260.572 9.44238 260.458 9.20996C260.344 8.97298 260.178 8.80208 259.959 8.69727C259.74 8.58789 259.471 8.5332 259.152 8.5332C258.838 8.5332 258.551 8.59928 258.291 8.73145C258.036 8.86361 257.815 9.0459 257.628 9.27832C257.446 9.51074 257.302 9.77734 257.197 10.0781C257.097 10.3743 257.047 10.6888 257.047 11.0215ZM268.347 13.291V7.60352H269.618V15H268.408L268.347 13.291ZM268.586 11.7324L269.112 11.7188C269.112 12.2109 269.06 12.6667 268.955 13.0859C268.855 13.5007 268.691 13.8607 268.463 14.166C268.235 14.4714 267.937 14.7106 267.567 14.8838C267.198 15.0524 266.749 15.1367 266.221 15.1367C265.861 15.1367 265.53 15.0843 265.229 14.9795C264.933 14.8747 264.678 14.7129 264.464 14.4941C264.25 14.2754 264.083 13.9906 263.965 13.6396C263.851 13.2887 263.794 12.8672 263.794 12.375V7.60352H265.059V12.3887C265.059 12.7214 265.095 12.9971 265.168 13.2158C265.245 13.43 265.348 13.6009 265.476 13.7285C265.608 13.8516 265.754 13.9382 265.913 13.9883C266.077 14.0384 266.246 14.0635 266.419 14.0635C266.957 14.0635 267.383 13.9609 267.697 13.7559C268.012 13.5462 268.237 13.266 268.374 12.915C268.515 12.5596 268.586 12.1654 268.586 11.7324ZM274.643 7.60352V8.57422H270.644V7.60352H274.643ZM271.997 5.80566H273.262V13.168C273.262 13.4186 273.3 13.6077 273.378 13.7354C273.455 13.863 273.556 13.9473 273.679 13.9883C273.802 14.0293 273.934 14.0498 274.075 14.0498C274.18 14.0498 274.289 14.0407 274.403 14.0225C274.522 13.9997 274.611 13.9814 274.67 13.9678L274.677 15C274.576 15.0319 274.444 15.0615 274.28 15.0889C274.121 15.1208 273.927 15.1367 273.699 15.1367C273.389 15.1367 273.104 15.0752 272.845 14.9521C272.585 14.8291 272.378 14.624 272.223 14.3369C272.072 14.0452 271.997 13.6533 271.997 13.1611V5.80566ZM279.195 15.1367C278.68 15.1367 278.213 15.0501 277.794 14.877C277.379 14.6992 277.021 14.4508 276.721 14.1318C276.424 13.8128 276.197 13.4346 276.037 12.9971C275.878 12.5596 275.798 12.0811 275.798 11.5615V11.2744C275.798 10.6729 275.887 10.1374 276.064 9.66797C276.242 9.19401 276.484 8.79297 276.789 8.46484C277.094 8.13672 277.441 7.88835 277.828 7.71973C278.215 7.55111 278.617 7.4668 279.031 7.4668C279.56 7.4668 280.016 7.55794 280.398 7.74023C280.786 7.92253 281.103 8.17773 281.349 8.50586C281.595 8.82943 281.777 9.21224 281.896 9.6543C282.014 10.0918 282.073 10.5703 282.073 11.0898V11.6572H276.55V10.625H280.809V10.5293C280.79 10.2012 280.722 9.88216 280.604 9.57227C280.49 9.26237 280.307 9.00716 280.057 8.80664C279.806 8.60612 279.464 8.50586 279.031 8.50586C278.744 8.50586 278.48 8.56738 278.238 8.69043C277.997 8.80892 277.789 8.98665 277.616 9.22363C277.443 9.46061 277.309 9.75 277.213 10.0918C277.117 10.4336 277.069 10.8278 277.069 11.2744V11.5615C277.069 11.9124 277.117 12.2428 277.213 12.5527C277.313 12.8581 277.457 13.127 277.644 13.3594C277.835 13.5918 278.065 13.7741 278.334 13.9062C278.607 14.0384 278.917 14.1045 279.264 14.1045C279.71 14.1045 280.089 14.0133 280.398 13.8311C280.708 13.6488 280.979 13.4049 281.212 13.0996L281.978 13.708C281.818 13.9495 281.615 14.1797 281.369 14.3984C281.123 14.6172 280.82 14.7949 280.46 14.9316C280.104 15.0684 279.683 15.1367 279.195 15.1367ZM287.856 13.0381C287.856 12.8558 287.815 12.6872 287.733 12.5322C287.656 12.3727 287.494 12.2292 287.248 12.1016C287.007 11.9694 286.642 11.8555 286.154 11.7598C285.744 11.6732 285.373 11.5706 285.04 11.4521C284.712 11.3337 284.432 11.1901 284.199 11.0215C283.971 10.8529 283.796 10.6546 283.673 10.4268C283.55 10.1989 283.488 9.93229 283.488 9.62695C283.488 9.33529 283.552 9.05957 283.68 8.7998C283.812 8.54004 283.996 8.3099 284.233 8.10938C284.475 7.90885 284.764 7.75163 285.102 7.6377C285.439 7.52376 285.815 7.4668 286.229 7.4668C286.822 7.4668 287.328 7.57161 287.747 7.78125C288.166 7.99089 288.488 8.27116 288.711 8.62207C288.934 8.96842 289.046 9.35352 289.046 9.77734H287.781C287.781 9.57227 287.72 9.37402 287.597 9.18262C287.478 8.98665 287.303 8.82487 287.07 8.69727C286.842 8.56966 286.562 8.50586 286.229 8.50586C285.879 8.50586 285.594 8.56055 285.375 8.66992C285.161 8.77474 285.004 8.90918 284.903 9.07324C284.808 9.2373 284.76 9.41048 284.76 9.59277C284.76 9.72949 284.783 9.85254 284.828 9.96191C284.878 10.0667 284.965 10.1647 285.088 10.2559C285.211 10.3424 285.384 10.4245 285.607 10.502C285.831 10.5794 286.116 10.6569 286.462 10.7344C287.068 10.8711 287.567 11.0352 287.959 11.2266C288.351 11.418 288.643 11.6527 288.834 11.9307C289.025 12.2087 289.121 12.5459 289.121 12.9424C289.121 13.266 289.053 13.5622 288.916 13.8311C288.784 14.0999 288.59 14.3324 288.335 14.5283C288.084 14.7197 287.784 14.8701 287.433 14.9795C287.086 15.0843 286.697 15.1367 286.264 15.1367C285.612 15.1367 285.061 15.0205 284.609 14.7881C284.158 14.5557 283.816 14.2549 283.584 13.8857C283.352 13.5166 283.235 13.127 283.235 12.7168H284.507C284.525 13.0632 284.625 13.3389 284.808 13.5439C284.99 13.7445 285.213 13.888 285.478 13.9746C285.742 14.0566 286.004 14.0977 286.264 14.0977C286.61 14.0977 286.899 14.0521 287.132 13.9609C287.369 13.8698 287.549 13.7445 287.672 13.585C287.795 13.4255 287.856 13.2432 287.856 13.0381Z"
    fill="white"
  />
</svg>
